<svg width="17" height="16" viewBox="0 0 17 16" fill="none" xmlns="http://www.w3.org/2000/svg">
<g clip-path="url(#clip0_2062_6947)">
<path d="M7.06887 0.666016H10.8289L11.2602 2.82402C11.6173 2.98406 11.9569 3.18066 12.2735 3.41068L14.3595 2.70468L16.2395 5.96068L14.5855 7.41401C14.6255 7.80322 14.6255 8.19548 14.5855 8.58468L16.2389 10.038L14.3595 13.294L12.2735 12.5887C11.9569 12.8185 11.6173 13.0149 11.2602 13.1747L10.8282 15.3327H7.06887L6.63754 13.1747C6.28041 13.0146 5.94082 12.818 5.6242 12.588L3.5382 13.294L1.6582 10.038L3.3122 8.58468C3.27226 8.19548 3.27226 7.80322 3.3122 7.41401L1.65887 5.96068L3.53887 2.70468L5.6242 3.41002C5.94085 3.18022 6.28044 2.98384 6.63754 2.82402L7.06887 0.666016ZM8.1622 1.99935L7.80087 3.80268L7.45087 3.93135C6.98703 4.1026 6.55591 4.35198 6.1762 4.66868L5.88954 4.90802L4.1462 4.31802L3.35954 5.68068L4.74087 6.89468L4.67754 7.26202C4.59458 7.75007 4.59458 8.24863 4.67754 8.73668L4.74087 9.10335L3.35887 10.318L4.14554 11.6807L5.88954 11.0907L6.1762 11.33C6.55591 11.6467 6.98703 11.8961 7.45087 12.0673L7.80087 12.196L8.1622 13.9993H9.73554L10.0969 12.196L10.4469 12.0673C10.9107 11.8961 11.3418 11.6467 11.7215 11.33L12.0082 11.0907L13.7522 11.6807L14.5389 10.318L13.1575 9.10401L13.2202 8.73668C13.3032 8.24863 13.3032 7.75007 13.2202 7.26202L13.1575 6.89535L14.5389 5.68068L13.7522 4.31802L12.0082 4.90802L11.7215 4.66868C11.3418 4.35198 10.9107 4.1026 10.4469 3.93135L10.0969 3.80268L9.73554 1.99935H8.1622ZM8.94887 5.99935C8.41844 5.99935 7.90973 6.21006 7.53466 6.58513C7.15958 6.96021 6.94887 7.46892 6.94887 7.99935C6.94887 8.52978 7.15958 9.03849 7.53466 9.41356C7.90973 9.78864 8.41844 9.99935 8.94887 9.99935C9.4793 9.99935 9.98801 9.78864 10.3631 9.41356C10.7382 9.03849 10.9489 8.52978 10.9489 7.99935C10.9489 7.46892 10.7382 6.96021 10.3631 6.58513C9.98801 6.21006 9.4793 5.99935 8.94887 5.99935ZM5.61554 7.99935C5.61554 7.11529 5.96673 6.26745 6.59185 5.64233C7.21697 5.0172 8.06482 4.66602 8.94887 4.66602C9.83292 4.66602 10.6808 5.0172 11.3059 5.64233C11.931 6.26745 12.2822 7.11529 12.2822 7.99935C12.2822 8.8834 11.931 9.73125 11.3059 10.3564C10.6808 10.9815 9.83292 11.3327 8.94887 11.3327C8.06482 11.3327 7.21697 10.9815 6.59185 10.3564C5.96673 9.73125 5.61554 8.8834 5.61554 7.99935Z" fill="#030915"/>
</g>
<defs>
<clipPath id="clip0_2062_6947">
<rect width="16" height="16" fill="white" transform="translate(0.949219)"/>
</clipPath>
</defs>
</svg>
