<svg width="20" height="20" viewBox="0 0 20 20" fill="none" xmlns="http://www.w3.org/2000/svg">
<path d="M1.53878 19.2315C1.33566 19.2361 1.13374 19.1992 0.94539 19.123C0.757043 19.0468 0.586238 18.9329 0.443441 18.7884C0.298914 18.6456 0.18507 18.4748 0.108885 18.2865C0.0326992 18.0981 -0.00422212 17.8962 0.000383481 17.6931C0.000383481 17.2582 0.148069 16.8931 0.443441 16.5977C0.586238 16.4532 0.757043 16.3394 0.94539 16.2632C1.13374 16.187 1.33566 16.1501 1.53878 16.1547H18.4611C18.897 16.1547 19.2626 16.3024 19.558 16.5977C19.7022 16.7407 19.8158 16.9115 19.8917 17.0999C19.9676 17.2882 20.0043 17.4901 19.9995 17.6931C19.9995 18.1279 19.8523 18.493 19.558 18.7884C19.415 18.9331 19.244 19.0471 19.0553 19.1233C18.8667 19.1995 18.6645 19.2363 18.4611 19.2315H1.53878Z" fill="#030915"/>
<path d="M1.53881 3.84677C1.3358 3.85158 1.13395 3.8149 0.945608 3.73898C0.757267 3.66306 0.586403 3.5495 0.443476 3.40525C0.298759 3.26228 0.184803 3.09122 0.108612 2.9026C0.0324202 2.71397 -0.00439822 2.51176 0.000418344 2.30838C0.000418344 1.8725 0.148104 1.50688 0.443476 1.2115C0.586403 1.06726 0.757267 0.953696 0.945608 0.877778C1.13395 0.801859 1.3358 0.76518 1.53881 0.769986H18.4611C18.6644 0.764969 18.8666 0.801545 19.0552 0.877469C19.2438 0.953394 19.4149 1.06707 19.558 1.2115C19.7025 1.35461 19.8161 1.52573 19.8921 1.71435C19.968 1.90297 20.0046 2.10511 19.9995 2.30838C20.0046 2.51165 19.968 2.71379 19.8921 2.90241C19.8161 3.09103 19.7025 3.26215 19.558 3.40525C19.4149 3.54969 19.2438 3.66337 19.0552 3.73929C18.8666 3.81521 18.6644 3.85179 18.4611 3.84677H1.53881Z" fill="#030915"/>
<path opacity="0.3" d="M1.53878 11.5382C1.33566 11.5428 1.13374 11.5059 0.94539 11.4297C0.757043 11.3535 0.586238 11.2396 0.443441 11.0951C0.298914 10.9523 0.18507 10.7815 0.108885 10.5932C0.0326992 10.4048 -0.00422213 10.2029 0.000383481 9.99979C0.000383481 9.56391 0.14807 9.19828 0.443441 8.90291C0.586368 8.75866 0.757232 8.6451 0.945573 8.56918C1.13391 8.49326 1.33577 8.45659 1.53878 8.46139H13.8459C14.0492 8.45638 14.2513 8.49295 14.44 8.56888C14.6286 8.6448 14.7997 8.75847 14.9428 8.90291C15.0872 9.04602 15.2009 9.21713 15.2768 9.40575C15.3528 9.59437 15.3893 9.79652 15.3843 9.99979C15.3843 10.4346 15.2372 10.7998 14.9428 11.0951C14.7998 11.2398 14.6288 11.3538 14.4402 11.43C14.2515 11.5062 14.0493 11.543 13.8459 11.5382H1.53878Z" fill="#757678"/>
</svg>
