<svg width="25" height="25" viewBox="0 0 25 25" fill="none" xmlns="http://www.w3.org/2000/svg">
<g opacity="0.6">
<path d="M19.8193 6.27539L19.1996 16.3005C19.0412 18.8618 18.9621 20.1425 18.3201 21.0633C18.0026 21.5185 17.594 21.9027 17.12 22.1914C16.1614 22.7754 14.8783 22.7754 12.312 22.7754C9.74246 22.7754 8.45764 22.7754 7.49839 22.1903C7.02414 21.9011 6.61534 21.5162 6.29802 21.0602C5.65622 20.138 5.57879 18.8555 5.42395 16.2906L4.81934 6.27539" stroke="#525A65" stroke-width="1.5" stroke-linecap="round"/>
<path d="M3.31934 6.27539H21.3193M16.375 6.27539L15.6924 4.86712C15.2389 3.93165 15.0121 3.46391 14.621 3.1722C14.5343 3.10749 14.4424 3.04993 14.3463 3.00009C13.9132 2.77539 13.3934 2.77539 12.3538 2.77539C11.2881 2.77539 10.7553 2.77539 10.315 3.00951C10.2174 3.0614 10.1243 3.12129 10.0366 3.18856C9.64098 3.49209 9.41997 3.97694 8.97795 4.94665L8.37226 6.27539" stroke="#525A65" stroke-width="1.5" stroke-linecap="round"/>
<path d="M9.81934 17.2754V11.2754" stroke="#525A65" stroke-width="1.5" stroke-linecap="round"/>
<path d="M14.8193 17.2754V11.2754" stroke="#525A65" stroke-width="1.5" stroke-linecap="round"/>
</g>
</svg>
