<svg width="21" height="21" viewBox="0 0 21 21" fill="none" xmlns="http://www.w3.org/2000/svg">
<g opacity="0.7">
<path d="M9.8457 15.9355C9.8457 15.604 9.9774 15.2861 10.2118 15.0517C10.4462 14.8172 10.7642 14.6855 11.0957 14.6855C11.4272 14.6855 11.7452 14.8172 11.9796 15.0517C12.214 15.2861 12.3457 15.604 12.3457 15.9355C12.3457 16.2671 12.214 16.585 11.9796 16.8194C11.7452 17.0539 11.4272 17.1855 11.0957 17.1855C10.7642 17.1855 10.4462 17.0539 10.2118 16.8194C9.9774 16.585 9.8457 16.2671 9.8457 15.9355ZM9.8457 10.9355C9.8457 10.604 9.9774 10.2861 10.2118 10.0517C10.4462 9.81724 10.7642 9.68555 11.0957 9.68555C11.4272 9.68555 11.7452 9.81724 11.9796 10.0517C12.214 10.2861 12.3457 10.604 12.3457 10.9355C12.3457 11.2671 12.214 11.585 11.9796 11.8194C11.7452 12.0539 11.4272 12.1855 11.0957 12.1855C10.7642 12.1855 10.4462 12.0539 10.2118 11.8194C9.9774 11.585 9.8457 11.2671 9.8457 10.9355ZM9.8457 5.93555C9.8457 5.60403 9.9774 5.28608 10.2118 5.05166C10.4462 4.81724 10.7642 4.68555 11.0957 4.68555C11.4272 4.68555 11.7452 4.81724 11.9796 5.05166C12.214 5.28608 12.3457 5.60403 12.3457 5.93555C12.3457 6.26707 12.214 6.58501 11.9796 6.81943C11.7452 7.05385 11.4272 7.18555 11.0957 7.18555C10.7642 7.18555 10.4462 7.05385 10.2118 6.81943C9.9774 6.58501 9.8457 6.26707 9.8457 5.93555Z" fill="#525A65"/>
</g>
</svg>
