<svg width="19" height="20" viewBox="0 0 19 20" fill="none" xmlns="http://www.w3.org/2000/svg">
<path d="M7.04017 12.7798H6.80282L6.90469 12.9942C7.77439 14.8244 9.38777 16.0772 11.2504 16.0772C12.989 16.0772 14.6092 14.9427 15.5239 13.1362L17.4952 14.0802C16.2007 16.6722 13.8169 18.2614 11.2505 18.2614C9.28669 18.2614 7.4493 17.3632 6.07689 15.722L6.07685 15.722C5.38633 14.8969 4.85802 13.9336 4.51043 12.8826L4.4764 12.7797H4.36802H1.81602V10.5956H3.89456H4.0537L4.0443 10.4367C4.03249 10.2373 4.02641 10.0391 4.02641 9.83776C4.02641 9.6385 4.03249 9.43768 4.04429 9.24108L4.05383 9.0821H3.89456H1.81602V6.89749H4.36802H4.4764L4.51043 6.79459C4.85804 5.74352 5.38636 4.77904 6.07683 3.95323C7.44919 2.31226 9.28655 1.41563 11.2504 1.41563C13.8168 1.41563 16.2007 3.00501 17.4952 5.59702L15.5239 6.53925C14.6092 4.73503 12.989 3.60062 11.2505 3.60062C9.38779 3.60062 7.77446 4.85304 6.90475 6.6831L6.80287 6.89749H7.04023H12.5238V9.08216H6.38546H6.24689L6.23593 9.22029C6.2199 9.42238 6.21135 9.6301 6.21135 9.83782C6.21135 10.0476 6.21996 10.2527 6.23591 10.4573L6.2467 10.5956H6.38546H12.5237V12.7798H7.04017Z" fill="white" stroke="#EFF1F5" stroke-width="0.3"/>
</svg>
