<svg width="17" height="16" viewBox="0 0 17 16" fill="none" xmlns="http://www.w3.org/2000/svg">
<mask id="path-1-outside-1_2062_6961" maskUnits="userSpaceOnUse" x="3.44922" y="4.5" width="11" height="9" fill="black">
<rect fill="white" x="3.44922" y="4.5" width="11" height="9"/>
<path fill-rule="evenodd" clip-rule="evenodd" d="M6.91589 5.5H10.9826C11.4252 5.5 11.8072 5.5 12.1132 5.54133C12.4412 5.58533 12.7552 5.68467 13.0099 5.93933C13.2646 6.194 13.3639 6.50867 13.4079 6.836C13.4492 7.142 13.4492 7.524 13.4492 7.96733V10.6993C13.4492 11.1427 13.4492 11.5247 13.4079 11.8307C13.3639 12.1587 13.2646 12.4727 13.0099 12.7273C12.7552 12.982 12.4406 13.0813 12.1132 13.1253C11.8072 13.1667 11.4252 13.1667 10.9826 13.1667H6.91589C6.47322 13.1667 6.09122 13.1667 5.78522 13.1253C5.45789 13.0813 5.14322 12.982 4.88855 12.7273C4.63389 12.4727 4.53455 12.158 4.49055 11.8307C4.44922 11.5247 4.44922 11.1427 4.44922 10.6993V7.96733C4.44922 7.524 4.44922 7.142 4.49055 6.836C4.53455 6.50867 4.63389 6.194 4.88855 5.93933C5.14322 5.68467 5.45789 5.58533 5.78522 5.54133C6.09122 5.5 6.47322 5.5 6.91655 5.5M5.91922 6.532C5.70255 6.56133 5.63455 6.60867 5.59655 6.64667C5.55855 6.68467 5.51122 6.75267 5.48189 6.96933C5.45122 7.20067 5.44989 7.51467 5.44989 8V10.6667C5.44989 11.152 5.45122 11.4667 5.48189 11.6973C5.51122 11.914 5.55855 11.982 5.59655 12.02C5.63455 12.058 5.70255 12.1053 5.91922 12.1347C6.15055 12.1653 6.46455 12.1667 6.94989 12.1667H10.9499C11.4352 12.1667 11.7499 12.1653 11.9806 12.1347C12.1972 12.1053 12.2652 12.058 12.3032 12.02C12.3412 11.982 12.3886 11.914 12.4179 11.6973C12.4486 11.466 12.4499 11.152 12.4499 10.6667V8C12.4499 7.51467 12.4486 7.2 12.4179 6.96933C12.3886 6.75267 12.3412 6.68467 12.3032 6.64667C12.2652 6.60867 12.1972 6.56133 11.9806 6.532C11.7492 6.50133 11.4352 6.5 10.9499 6.5H6.94922C6.46389 6.5 6.14989 6.50133 5.91922 6.532Z"/>
</mask>
<path fill-rule="evenodd" clip-rule="evenodd" d="M6.91589 5.5H10.9826C11.4252 5.5 11.8072 5.5 12.1132 5.54133C12.4412 5.58533 12.7552 5.68467 13.0099 5.93933C13.2646 6.194 13.3639 6.50867 13.4079 6.836C13.4492 7.142 13.4492 7.524 13.4492 7.96733V10.6993C13.4492 11.1427 13.4492 11.5247 13.4079 11.8307C13.3639 12.1587 13.2646 12.4727 13.0099 12.7273C12.7552 12.982 12.4406 13.0813 12.1132 13.1253C11.8072 13.1667 11.4252 13.1667 10.9826 13.1667H6.91589C6.47322 13.1667 6.09122 13.1667 5.78522 13.1253C5.45789 13.0813 5.14322 12.982 4.88855 12.7273C4.63389 12.4727 4.53455 12.158 4.49055 11.8307C4.44922 11.5247 4.44922 11.1427 4.44922 10.6993V7.96733C4.44922 7.524 4.44922 7.142 4.49055 6.836C4.53455 6.50867 4.63389 6.194 4.88855 5.93933C5.14322 5.68467 5.45789 5.58533 5.78522 5.54133C6.09122 5.5 6.47322 5.5 6.91655 5.5M5.91922 6.532C5.70255 6.56133 5.63455 6.60867 5.59655 6.64667C5.55855 6.68467 5.51122 6.75267 5.48189 6.96933C5.45122 7.20067 5.44989 7.51467 5.44989 8V10.6667C5.44989 11.152 5.45122 11.4667 5.48189 11.6973C5.51122 11.914 5.55855 11.982 5.59655 12.02C5.63455 12.058 5.70255 12.1053 5.91922 12.1347C6.15055 12.1653 6.46455 12.1667 6.94989 12.1667H10.9499C11.4352 12.1667 11.7499 12.1653 11.9806 12.1347C12.1972 12.1053 12.2652 12.058 12.3032 12.02C12.3412 11.982 12.3886 11.914 12.4179 11.6973C12.4486 11.466 12.4499 11.152 12.4499 10.6667V8C12.4499 7.51467 12.4486 7.2 12.4179 6.96933C12.3886 6.75267 12.3412 6.68467 12.3032 6.64667C12.2652 6.60867 12.1972 6.56133 11.9806 6.532C11.7492 6.50133 11.4352 6.5 10.9499 6.5H6.94922C6.46389 6.5 6.14989 6.50133 5.91922 6.532Z" fill="#030915"/>
<path d="M12.1132 5.54133L12.0864 5.73953L12.0866 5.73956L12.1132 5.54133ZM13.4079 6.836L13.2097 6.86264L13.2097 6.86277L13.4079 6.836ZM13.4079 11.8307L13.2097 11.8039L13.2097 11.8041L13.4079 11.8307ZM12.1132 13.1253L12.0866 12.9271L12.0864 12.9271L12.1132 13.1253ZM5.78522 13.1253L5.81199 12.9271L5.81186 12.9271L5.78522 13.1253ZM4.49055 11.8307L4.68877 11.804L4.68875 11.8039L4.49055 11.8307ZM4.49055 6.836L4.68875 6.86277L4.68877 6.86264L4.49055 6.836ZM5.78522 5.54133L5.81186 5.73955L5.81199 5.73953L5.78522 5.54133ZM5.91922 6.532L5.89286 6.33374L5.89239 6.33381L5.91922 6.532ZM5.48189 6.96933L5.28369 6.9425L5.28362 6.94305L5.48189 6.96933ZM5.48189 11.6973L5.28363 11.7237L5.28369 11.7242L5.48189 11.6973ZM5.91922 12.1347L5.89239 12.3329L5.89294 12.3329L5.91922 12.1347ZM11.9806 12.1347L12.0069 12.3329L12.0074 12.3329L11.9806 12.1347ZM12.4179 11.6973L12.6161 11.7242L12.6162 11.7236L12.4179 11.6973ZM12.4179 6.96933L12.6161 6.94298L12.6161 6.9425L12.4179 6.96933ZM11.9806 6.532L12.0074 6.33381L12.0068 6.33373L11.9806 6.532ZM6.91589 5.7H10.9826V5.3H6.91589V5.7ZM10.9826 5.7C11.4301 5.7 11.7967 5.7004 12.0864 5.73953L12.14 5.34313C11.8177 5.2996 11.4204 5.3 10.9826 5.3V5.7ZM12.0866 5.73956C12.3926 5.7806 12.6572 5.86952 12.8685 6.08075L13.1513 5.79791C12.8532 5.49982 12.4899 5.39007 12.1398 5.34311L12.0866 5.73956ZM12.8685 6.08075C13.0797 6.29195 13.1686 6.55725 13.2097 6.86264L13.6061 6.80936C13.5592 6.46008 13.4494 6.09605 13.1513 5.79791L12.8685 6.08075ZM13.2097 6.86277C13.2488 7.15248 13.2492 7.51916 13.2492 7.96733H13.6492C13.6492 7.52884 13.6496 7.13152 13.6061 6.80923L13.2097 6.86277ZM13.2492 7.96733V10.6993H13.6492V7.96733H13.2492ZM13.2492 10.6993C13.2492 11.1475 13.2488 11.5142 13.2097 11.8039L13.6061 11.8574C13.6496 11.5351 13.6492 11.1378 13.6492 10.6993H13.2492ZM13.2097 11.8041C13.1686 12.11 13.0797 12.3747 12.8685 12.5859L13.1513 12.8688C13.4494 12.5707 13.5591 12.2073 13.6061 11.8573L13.2097 11.8041ZM12.8685 12.5859C12.6573 12.7971 12.392 12.8861 12.0866 12.9271L12.1399 13.3235C12.4891 13.2766 12.8532 13.1669 13.1513 12.8688L12.8685 12.5859ZM12.0864 12.9271C11.7967 12.9663 11.4301 12.9667 10.9826 12.9667V13.3667C11.4204 13.3667 11.8177 13.3671 12.14 13.3235L12.0864 12.9271ZM10.9826 12.9667H6.91589V13.3667H10.9826V12.9667ZM6.91589 12.9667C6.46838 12.9667 6.1017 12.9663 5.81199 12.9271L5.75845 13.3235C6.08074 13.3671 6.47805 13.3667 6.91589 13.3667V12.9667ZM5.81186 12.9271C5.50647 12.8861 5.24117 12.7971 5.02997 12.5859L4.74713 12.8688C5.04526 13.1669 5.4093 13.2766 5.75857 13.3235L5.81186 12.9271ZM5.02997 12.5859C4.81877 12.3747 4.72982 12.1094 4.68877 11.804L4.29233 11.8573C4.33928 12.2066 4.449 12.5706 4.74713 12.8688L5.02997 12.5859ZM4.68875 11.8039C4.64962 11.5142 4.64922 11.1475 4.64922 10.6993H4.24922C4.24922 11.1378 4.24882 11.5351 4.29235 11.8574L4.68875 11.8039ZM4.64922 10.6993V7.96733H4.24922V10.6993H4.64922ZM4.64922 7.96733C4.64922 7.51916 4.64962 7.15248 4.68875 6.86277L4.29235 6.80923C4.24882 7.13152 4.24922 7.52884 4.24922 7.96733H4.64922ZM4.68877 6.86264C4.72982 6.55725 4.81877 6.29195 5.02997 6.08075L4.74713 5.79791C4.449 6.09605 4.33928 6.46008 4.29233 6.80936L4.68877 6.86264ZM5.02997 6.08075C5.24117 5.86956 5.50647 5.7806 5.81186 5.73955L5.75857 5.34312C5.4093 5.39007 5.04526 5.49978 4.74713 5.79791L5.02997 6.08075ZM5.81199 5.73953C6.1017 5.7004 6.46838 5.7 6.91655 5.7V5.3C6.47806 5.3 6.08074 5.2996 5.75845 5.34313L5.81199 5.73953ZM5.89239 6.33381C5.65283 6.36624 5.53607 6.42431 5.45513 6.50525L5.73797 6.78809C5.73969 6.78637 5.74451 6.78036 5.7675 6.77083C5.79498 6.75943 5.84785 6.74349 5.94605 6.73019L5.89239 6.33381ZM5.45513 6.50525C5.37419 6.58618 5.31613 6.70294 5.28369 6.9425L5.68008 6.99617C5.69337 6.89796 5.70932 6.8451 5.72071 6.81761C5.73025 6.79462 5.73625 6.78981 5.73797 6.78809L5.45513 6.50525ZM5.28362 6.94305C5.2508 7.19059 5.24989 7.52028 5.24989 8H5.64989C5.64989 7.50905 5.65163 7.21074 5.68015 6.99562L5.28362 6.94305ZM5.24989 8V10.6667H5.64989V8H5.24989ZM5.24989 10.6667C5.24989 11.1463 5.2508 11.4768 5.28363 11.7237L5.68014 11.671C5.65164 11.4566 5.64989 11.1577 5.64989 10.6667H5.24989ZM5.28369 11.7242C5.31613 11.9637 5.37419 12.0805 5.45513 12.1614L5.73797 11.8786C5.73625 11.8769 5.73025 11.872 5.72071 11.8491C5.70932 11.8216 5.69337 11.7687 5.68008 11.6705L5.28369 11.7242ZM5.45513 12.1614C5.53607 12.2424 5.65283 12.3004 5.89239 12.3329L5.94605 11.9365C5.84785 11.9232 5.79498 11.9072 5.76749 11.8958C5.74451 11.8863 5.73969 11.8803 5.73797 11.8786L5.45513 12.1614ZM5.89294 12.3329C6.14048 12.3657 6.47017 12.3667 6.94989 12.3667V11.9667C6.45894 11.9667 6.16062 11.9649 5.9455 11.9364L5.89294 12.3329ZM6.94989 12.3667H10.9499V11.9667H6.94989V12.3667ZM10.9499 12.3667C11.4296 12.3667 11.76 12.3658 12.0069 12.3329L11.9542 11.9364C11.7398 11.9649 11.4409 11.9667 10.9499 11.9667V12.3667ZM12.0074 12.3329C12.2469 12.3004 12.3637 12.2424 12.4446 12.1614L12.1618 11.8786C12.1601 11.8803 12.1553 11.8863 12.1323 11.8958C12.1048 11.9072 12.0519 11.9232 11.9537 11.9365L12.0074 12.3329ZM12.4446 12.1614C12.5256 12.0805 12.5836 11.9637 12.6161 11.7242L12.2197 11.6705C12.2064 11.7687 12.1905 11.8216 12.1791 11.8491C12.1695 11.872 12.1635 11.8769 12.1618 11.8786L12.4446 12.1614ZM12.6162 11.7236C12.649 11.4761 12.6499 11.1464 12.6499 10.6667H12.2499C12.2499 11.1576 12.2481 11.4559 12.2196 11.671L12.6162 11.7236ZM12.6499 10.6667V8H12.2499V10.6667H12.6499ZM12.6499 8C12.6499 7.52034 12.649 7.18991 12.6161 6.94298L12.2196 6.99569C12.2481 7.21009 12.2499 7.509 12.2499 8H12.6499ZM12.6161 6.9425C12.5836 6.70295 12.5256 6.58618 12.4446 6.50525L12.1618 6.78809C12.1635 6.78981 12.1695 6.79462 12.1791 6.81761C12.1905 6.8451 12.2064 6.89796 12.2197 6.99617L12.6161 6.9425ZM12.4446 6.50525C12.3637 6.42431 12.2469 6.36624 12.0074 6.33381L11.9537 6.73019C12.0519 6.74349 12.1048 6.75943 12.1323 6.77083C12.1553 6.78036 12.1601 6.78637 12.1618 6.78809L12.4446 6.50525ZM12.0068 6.33373C11.7593 6.30092 11.4296 6.3 10.9499 6.3V6.7C11.4408 6.7 11.7391 6.70175 11.9543 6.73027L12.0068 6.33373ZM10.9499 6.3H6.94922V6.7H10.9499V6.3ZM6.94922 6.3C6.46954 6.3 6.13979 6.30092 5.89286 6.33374L5.94558 6.73026C6.15998 6.70175 6.45823 6.7 6.94922 6.7V6.3Z" fill="#030915" mask="url(#path-1-outside-1_2062_6961)"/>
<path d="M5.61523 3.4C5.4561 3.4 5.30349 3.46321 5.19097 3.57574C5.07845 3.68826 5.01523 3.84087 5.01523 4C5.01523 4.15913 5.07845 4.31174 5.19097 4.42426C5.30349 4.53679 5.4561 4.6 5.61523 4.6H8.94857C9.1077 4.6 9.26031 4.53679 9.37283 4.42426C9.48535 4.31174 9.54857 4.15913 9.54857 4C9.54857 3.84087 9.48535 3.68826 9.37283 3.57574C9.26031 3.46321 9.1077 3.4 8.94857 3.4H5.61523Z" fill="#030915" stroke="#030915" stroke-width="0.2"/>
<path d="M3.641 3.82128L3.641 3.82129C3.5501 4.49842 3.54855 5.39315 3.54855 6.66732V9.33398C3.54855 10.6081 3.5501 11.5035 3.641 12.1807C3.7295 12.8395 3.89357 13.2016 4.15393 13.4619C4.41428 13.7223 4.77635 13.8864 5.43585 13.9749L5.42255 14.074L5.43586 13.9749C6.11299 14.0658 7.00772 14.0673 8.28189 14.0673H9.61522C10.8894 14.0673 11.7848 14.0658 12.4619 13.9749C13.1207 13.8864 13.4828 13.7223 13.7432 13.4619C14.0035 13.2016 14.1676 12.8395 14.2561 12.18L14.2561 12.18C14.347 11.5035 14.3486 10.6082 14.3486 9.33398V6.66732C14.3486 5.39317 14.347 4.49844 14.2561 3.82063L3.641 3.82128ZM3.641 3.82128C3.72949 3.16184 3.89356 2.79971 4.15329 2.53934C4.41434 2.27896 4.77647 2.11491 5.43584 2.02643C6.11365 1.93553 7.00773 1.93398 8.28189 1.93398H9.61522C10.8894 1.93398 11.7848 1.93553 12.4612 2.02643L12.4613 2.02643M3.641 3.82128L12.4613 2.02643M12.4613 2.02643C13.1208 2.11493 13.4828 2.27901 13.7432 2.53936C14.0035 2.79972 14.1676 3.1618 14.2561 3.82061L12.4613 2.02643ZM3.37655 14.24C3.87589 14.7386 4.50855 14.96 5.28989 15.0653C6.04921 15.1673 7.01987 15.1673 8.24518 15.1673H8.24522H9.65322H9.65325C10.8786 15.1673 11.8486 15.1673 12.6086 15.0653C13.3899 14.96 14.0226 14.7386 14.5219 14.24C15.0206 13.7407 15.2419 13.108 15.3472 12.3267C15.4492 11.5673 15.4492 10.5967 15.4492 9.37132V6.62998C15.4492 5.40465 15.4492 4.43465 15.3472 3.67465C15.2419 2.89332 15.0206 2.26065 14.5219 1.76132L3.37655 14.24ZM3.37655 14.24C2.87789 13.7407 2.65655 13.108 2.55122 12.3267L3.37655 14.24ZM12.6219 0.836881L12.6219 0.836875C11.8559 0.733984 10.8798 0.733984 9.66055 0.733984H9.65322H8.24522H8.23791C7.01864 0.733984 6.04321 0.733984 5.27658 0.836873L5.27653 0.836881C4.48416 0.943702 3.8269 1.17025 3.30589 1.69056L3.30579 1.69065C2.78548 2.21166 2.55894 2.86892 2.45212 3.66129L2.45211 3.66134C2.34922 4.4273 2.34922 5.4034 2.34922 6.62266V6.62998V9.37132V9.37862C2.34922 10.5979 2.34922 11.5733 2.45211 12.34L2.45212 12.34C2.55894 13.1324 2.78548 13.7896 3.30579 14.3106L3.30589 14.3107C3.82689 14.8311 4.48416 15.0576 5.27653 15.1644L5.27657 15.1644C6.04254 15.2673 7.01863 15.2673 8.23789 15.2673H8.24522H9.65322H9.66055C10.8798 15.2673 11.8552 15.2673 12.6219 15.1644L12.6219 15.1644C13.4143 15.0576 14.0715 14.8311 14.5925 14.3107L14.5926 14.3106C15.113 13.7896 15.3395 13.1324 15.4463 12.34L15.4463 12.34C15.5492 11.574 15.5492 10.5979 15.5492 9.37862V9.37132V6.62998V6.62268C15.5492 5.40341 15.5492 4.42798 15.4463 3.66135L15.4463 3.66129C15.3395 2.86892 15.113 2.21166 14.5926 1.69065L14.5925 1.69056C14.0715 1.17025 13.4143 0.943702 12.6219 0.836881Z" fill="#030915" stroke="#030915" stroke-width="0.2"/>
</svg>
