<svg width="17" height="16" viewBox="0 0 17 16" fill="none" xmlns="http://www.w3.org/2000/svg">
<g clip-path="url(#clip0_2062_6957)">
<path d="M9.80664 0.857422C7.91231 0.857422 6.09557 1.60994 4.75608 2.94943C3.41658 4.28893 2.66406 6.10567 2.66406 8H0.283203L3.37038 11.0872L3.42594 11.1983L6.63216 8H4.2513C4.2513 4.92869 6.73533 2.44466 9.80664 2.44466C12.8779 2.44466 15.362 4.92869 15.362 8C15.362 11.0713 12.8779 13.5553 9.80664 13.5553C8.27495 13.5553 6.88612 12.9284 5.88616 11.9205L4.75922 13.0474C5.42053 13.7126 6.20704 14.2403 7.07336 14.5999C7.93968 14.9595 8.86865 15.1439 9.80664 15.1426C11.701 15.1426 13.5177 14.3901 14.8572 13.0506C16.1967 11.7111 16.9492 9.89433 16.9492 8C16.9492 6.10567 16.1967 4.28893 14.8572 2.94943C13.5177 1.60994 11.701 0.857422 9.80664 0.857422ZM9.01302 4.82552V8.79362L12.4097 10.8094L12.9811 9.84913L10.2035 8.1984V4.82552H9.01302Z" fill="#030915"/>
</g>
<defs>
<clipPath id="clip0_2062_6957">
<rect width="16" height="16" fill="white" transform="translate(0.949219)"/>
</clipPath>
</defs>
</svg>
