<svg width="25" height="25" viewBox="0 0 25 25" fill="none" xmlns="http://www.w3.org/2000/svg">
<g opacity="0.6">
<path d="M17.2652 3.94844C17.8525 3.36117 18.1461 3.06754 18.4714 2.92712C18.9401 2.72481 19.4714 2.72481 19.9401 2.92712C20.2653 3.06754 20.559 3.36117 21.1462 3.94844C21.7335 4.53571 22.0272 4.82934 22.1676 5.15464C22.3699 5.62329 22.3699 6.15463 22.1676 6.62328C22.0272 6.94858 21.7335 7.24221 21.1462 7.82948L16.1247 12.8511C14.8875 14.0883 14.2689 14.7069 13.4941 15.0734C12.7193 15.4399 11.8487 15.5258 10.1076 15.6976L9.31934 15.7754L9.39712 14.9872C9.56892 13.246 9.65483 12.3754 10.0213 11.6006C10.3878 10.8258 11.0064 10.2072 12.2436 8.97003L17.2652 3.94844Z" stroke="#525A65" stroke-width="1.5" stroke-linejoin="round"/>
<path d="M6.31934 15.7754H4.06934C3.10284 15.7754 2.31934 16.5589 2.31934 17.5254C2.31934 18.4919 3.10284 19.2754 4.06934 19.2754H13.5693C14.5358 19.2754 15.3193 20.0589 15.3193 21.0254C15.3193 21.9919 14.5358 22.7754 13.5693 22.7754H11.3193" stroke="#525A65" stroke-width="1.5" stroke-linecap="round" stroke-linejoin="round"/>
</g>
</svg>
