<svg width="14" height="15" viewBox="0 0 14 15" fill="none" xmlns="http://www.w3.org/2000/svg">
<g clip-path="url(#clip0_2058_6859)">
<path d="M6.41602 3.12695H2.33268C2.02326 3.12695 1.72652 3.24987 1.50772 3.46866C1.28893 3.68745 1.16602 3.9842 1.16602 4.29362V12.4603C1.16602 12.7697 1.28893 13.0665 1.50772 13.2852C1.72652 13.504 2.02326 13.627 2.33268 13.627H10.4993C10.8088 13.627 11.1055 13.504 11.3243 13.2852C11.5431 13.0665 11.666 12.7697 11.666 12.4603V8.37695" stroke="#525A65" stroke-width="1.2" stroke-linecap="round" stroke-linejoin="round"/>
<path d="M10.791 2.25209C11.0231 2.02002 11.3378 1.88965 11.666 1.88965C11.9942 1.88965 12.309 2.02002 12.541 2.25209C12.7731 2.48415 12.9035 2.7989 12.9035 3.12709C12.9035 3.45527 12.7731 3.77002 12.541 4.00209L6.99935 9.54375L4.66602 10.1271L5.24935 7.79375L10.791 2.25209Z" stroke="#525A65" stroke-width="1.2" stroke-linecap="round" stroke-linejoin="round"/>
</g>
<defs>
<clipPath id="clip0_2058_6859">
<rect width="14" height="14" fill="white" transform="translate(0 0.793945)"/>
</clipPath>
</defs>
</svg>
