<svg width="14" height="14" viewBox="0 0 14 14" fill="none" xmlns="http://www.w3.org/2000/svg">
<path fill-rule="evenodd" clip-rule="evenodd" d="M13.6666 6.86418C13.6666 10.5462 10.6819 13.5308 6.99992 13.5308C3.31792 13.5308 0.333252 10.5462 0.333252 6.86418C0.333252 3.18218 3.31792 0.19751 6.99992 0.19751C10.6819 0.19751 13.6666 3.18218 13.6666 6.86418ZM4.97992 4.84418C5.07367 4.75054 5.20075 4.69795 5.33325 4.69795C5.46575 4.69795 5.59283 4.75054 5.68658 4.84418L6.99992 6.15751L8.31325 4.84418C8.40804 4.75586 8.5334 4.70777 8.66293 4.71006C8.79247 4.71234 8.91606 4.76482 9.00767 4.85643C9.09927 4.94804 9.15175 5.07163 9.15403 5.20116C9.15632 5.3307 9.10824 5.45606 9.01992 5.55084L7.70658 6.86418L9.01992 8.17751C9.10824 8.27229 9.15632 8.39766 9.15403 8.52719C9.15175 8.65672 9.09927 8.78031 9.00767 8.87192C8.91606 8.96353 8.79247 9.01601 8.66293 9.01829C8.5334 9.02058 8.40804 8.9725 8.31325 8.88418L6.99992 7.57084L5.68658 8.88418C5.5918 8.9725 5.46644 9.02058 5.3369 9.01829C5.20737 9.01601 5.08378 8.96353 4.99217 8.87192C4.90056 8.78031 4.84809 8.65672 4.8458 8.52719C4.84352 8.39766 4.8916 8.27229 4.97992 8.17751L6.29325 6.86418L4.97992 5.55084C4.88628 5.45709 4.83369 5.33001 4.83369 5.19751C4.83369 5.06501 4.88628 4.93793 4.97992 4.84418Z" fill="#F7171A"/>
</svg>
