<svg width="18" height="19" viewBox="0 0 18 19" fill="none" xmlns="http://www.w3.org/2000/svg">
<g clip-path="url(#clip0_4052_5804)">
<mask id="mask0_4052_5804" style="mask-type:luminance" maskUnits="userSpaceOnUse" x="0" y="1" width="18" height="18">
<path d="M9.00001 17.1143C9.9851 17.1155 10.9607 16.922 11.8708 16.545C12.7809 16.1681 13.6076 15.615 14.3033 14.9175C15.0007 14.2218 15.5538 13.3952 15.9308 12.4851C16.3078 11.575 16.5012 10.5994 16.5 9.61426C16.5012 8.62917 16.3078 7.65355 15.9308 6.74345C15.5538 5.83335 15.0007 5.0067 14.3033 4.31101C13.6076 3.61357 12.7809 3.06047 11.8708 2.68348C10.9607 2.30649 9.9851 2.11305 9.00001 2.11426C8.01491 2.11305 7.03929 2.30649 6.12919 2.68348C5.21909 3.06047 4.39245 3.61357 3.69676 4.31101C2.99932 5.0067 2.44621 5.83335 2.06922 6.74345C1.69223 7.65355 1.49879 8.62917 1.50001 9.61426C1.49879 10.5994 1.69223 11.575 2.06922 12.4851C2.44621 13.3952 2.99932 14.2218 3.69676 14.9175C4.39245 15.615 5.21909 16.1681 6.12919 16.545C7.03929 16.922 8.01491 17.1155 9.00001 17.1143Z" fill="white" stroke="white" stroke-width="2" stroke-linejoin="round"/>
<path d="M6 9.61426L8.25 11.8643L12.75 7.36426" stroke="black" stroke-width="2" stroke-linecap="round" stroke-linejoin="round"/>
</mask>
<g mask="url(#mask0_4052_5804)">
<path d="M0 0.614258H18V18.6143H0V0.614258Z" fill="#1DDEA8"/>
</g>
</g>
<defs>
<clipPath id="clip0_4052_5804">
<rect width="18" height="18" fill="white" transform="translate(0 0.614258)"/>
</clipPath>
</defs>
</svg>
