<svg width="61" height="61" viewBox="0 0 61 61" fill="none" xmlns="http://www.w3.org/2000/svg">
<g clip-path="url(#clip0_2058_14791)">
<path d="M60.0742 38.1536C56.0675 54.2252 39.7896 64.0061 23.7161 59.9983C7.64934 55.9916 -2.1315 39.7127 1.87697 23.6424C5.88193 7.56906 22.1598 -2.21253 38.2283 1.79419C54.3007 5.8009 64.0809 22.0816 60.0738 38.1539L60.0741 38.1536H60.0742Z" fill="#F7931A"/>
<path d="M44.2042 26.6218C44.8013 22.6295 41.7618 20.4834 37.6055 19.0518L38.9538 13.6438L35.6618 12.8236L34.3493 18.0892C33.4838 17.8733 32.595 17.6699 31.7117 17.4683L33.0338 12.1679L29.7438 11.3477L28.3948 16.7539C27.6786 16.5908 26.9752 16.4297 26.2927 16.2599L26.2965 16.2428L21.7568 15.1092L20.8811 18.6253C20.8811 18.6253 23.3235 19.1851 23.272 19.2196C24.6051 19.5523 24.8461 20.4348 24.8061 21.1342L23.2702 27.2952C23.362 27.3185 23.4811 27.3522 23.6125 27.405C23.5026 27.3777 23.3858 27.348 23.2645 27.3189L21.1117 35.9496C20.9488 36.3546 20.5353 36.9624 19.6033 36.7316C19.6363 36.7794 17.2106 36.1345 17.2106 36.1345L15.5762 39.9028L19.8602 40.9707C20.6572 41.1706 21.4381 41.3797 22.2073 41.5763L20.845 47.0463L24.1332 47.8666L25.4823 42.4547C26.3806 42.6986 27.2523 42.9235 28.1057 43.1355L26.7612 48.522L30.0534 49.3422L31.4155 43.8825C37.0291 44.9449 41.25 44.5166 43.0267 39.4391C44.4583 35.3511 42.9554 32.9932 40.0021 31.4556C42.1531 30.9595 43.7733 29.5448 44.2053 26.6223L44.2043 26.6215L44.2042 26.6218ZM36.6827 37.1689C35.6653 41.2568 28.7825 39.047 26.5509 38.4928L28.3587 31.246C30.5901 31.8031 37.746 32.9055 36.6828 37.1689H36.6827ZM37.7008 26.5626C36.7727 30.281 31.0441 28.3919 29.1857 27.9287L30.8247 21.3562C32.683 21.8195 38.6676 22.684 37.7011 26.5626H37.7008Z" fill="white"/>
</g>
<defs>
<clipPath id="clip0_2058_14791">
<rect width="59.9933" height="60" fill="white" transform="translate(0.978516 0.896484)"/>
</clipPath>
</defs>
</svg>
