<svg width="61" height="61" viewBox="0 0 61 61" fill="none" xmlns="http://www.w3.org/2000/svg">
<g clip-path="url(#clip0_2058_4880)">
<path d="M30.6387 0.291016C47.2065 0.291016 60.6387 13.7232 60.6387 30.291C60.6387 46.8588 47.2059 60.291 30.6387 60.291C14.0715 60.291 0.638672 46.8624 0.638672 30.291C0.638672 13.7196 14.0691 0.291016 30.6387 0.291016Z" fill="#53AE94"/>
<path d="M34.3412 26.2939V21.8311H44.5466V15.0312H16.757V21.8311H26.9636V26.2903C18.6686 26.6713 12.4316 28.3141 12.4316 30.2821C12.4316 32.2501 18.6716 33.8929 26.9636 34.2763V48.5713H34.3436V34.2751C42.6236 33.8929 48.848 32.2513 48.848 30.2851C48.848 28.3189 42.6236 26.6772 34.3436 26.2951M34.3436 33.0642V33.0606C34.1354 33.0739 33.0656 33.1381 30.6836 33.1381C28.7792 33.1381 27.4394 33.0841 26.9672 33.0595V33.0655C19.6388 32.7409 14.1686 31.4646 14.1686 29.9376C14.1686 28.4106 19.6394 27.1363 26.9672 26.8111V31.7941C27.4472 31.8271 28.82 31.9081 30.7148 31.9081C32.9906 31.9081 34.1348 31.8133 34.3448 31.7941V26.8111C41.6588 27.1369 47.1164 28.4142 47.1164 29.9359C47.1164 31.4575 41.6564 32.7355 34.3448 33.0613" fill="white"/>
</g>
<defs>
<clipPath id="clip0_2058_4880">
<rect width="60" height="60" fill="white" transform="translate(0.638672 0.291016)"/>
</clipPath>
</defs>
</svg>
