<svg width="61" height="61" viewBox="0 0 61 61" fill="none" xmlns="http://www.w3.org/2000/svg">
<mask id="mask0_2058_14833" style="mask-type:alpha" maskUnits="userSpaceOnUse" x="0" y="0" width="61" height="61">
<mask id="path-1-inside-1_2058_14833" fill="white">
<path d="M0.977539 30.8965C0.977539 14.3279 14.409 0.896484 30.9775 0.896484C47.5461 0.896484 60.9775 14.3279 60.9775 30.8965C60.9775 47.465 47.5461 60.8965 30.9775 60.8965C14.409 60.8965 0.977539 47.465 0.977539 30.8965Z"/>
</mask>
<path d="M0.977539 30.8965C0.977539 14.3279 14.409 0.896484 30.9775 0.896484C47.5461 0.896484 60.9775 14.3279 60.9775 30.8965C60.9775 47.465 47.5461 60.8965 30.9775 60.8965C14.409 60.8965 0.977539 47.465 0.977539 30.8965Z" fill="white"/>
<path d="M0.977539 29.8965C0.977539 13.3279 14.409 -0.103516 30.9775 -0.103516C47.5461 -0.103516 60.9775 13.3279 60.9775 29.8965V30.8965C60.9775 14.8802 47.5461 1.89648 30.9775 1.89648C14.409 1.89648 0.977539 14.8802 0.977539 30.8965V29.8965ZM60.9775 60.8965H0.977539H60.9775ZM0.977539 60.8965V0.896484V60.8965ZM60.9775 0.896484V60.8965V0.896484Z" fill="white" fill-opacity="0.2" mask="url(#path-1-inside-1_2058_14833)"/>
</mask>
<g mask="url(#mask0_2058_14833)">
<g opacity="0.4" filter="url(#filter0_f_2058_14833)">
<mask id="path-3-inside-2_2058_14833" fill="white">
<path d="M13.4775 73.8965C13.4775 64.2315 21.3126 56.3965 30.9775 56.3965C40.6425 56.3965 48.4775 64.2315 48.4775 73.8965C48.4775 83.5615 40.6425 91.3965 30.9775 91.3965C21.3126 91.3965 13.4775 83.5615 13.4775 73.8965Z"/>
</mask>
<path d="M13.4775 73.8965C13.4775 64.2315 21.3126 56.3965 30.9775 56.3965C40.6425 56.3965 48.4775 64.2315 48.4775 73.8965C48.4775 83.5615 40.6425 91.3965 30.9775 91.3965C21.3126 91.3965 13.4775 83.5615 13.4775 73.8965Z" fill="#FF060A"/>
<path d="M13.4775 72.8965C13.4775 63.2315 21.3126 55.3965 30.9775 55.3965C40.6425 55.3965 48.4775 63.2315 48.4775 72.8965V73.8965C48.4775 64.7838 40.6425 57.3965 30.9775 57.3965C21.3126 57.3965 13.4775 64.7838 13.4775 73.8965V72.8965ZM48.4775 91.3965H13.4775H48.4775ZM13.4775 91.3965V56.3965V91.3965ZM48.4775 56.3965V91.3965V56.3965Z" fill="white" fill-opacity="0.2" mask="url(#path-3-inside-2_2058_14833)"/>
</g>
</g>
<mask id="path-5-inside-3_2058_14833" fill="white">
<path d="M0.640625 30.8965C0.640625 14.3279 14.0721 0.896484 30.6406 0.896484C47.2092 0.896484 60.6406 14.3279 60.6406 30.8965C60.6406 47.465 47.2092 60.8965 30.6406 60.8965C14.0721 60.8965 0.640625 47.465 0.640625 30.8965Z"/>
</mask>
<path d="M0.640625 30.8965C0.640625 14.3279 14.0721 0.896484 30.6406 0.896484C47.2092 0.896484 60.6406 14.3279 60.6406 30.8965C60.6406 47.465 47.2092 60.8965 30.6406 60.8965C14.0721 60.8965 0.640625 47.465 0.640625 30.8965Z" fill="#FF060A"/>
<path d="M0.640625 29.8965C0.640625 13.3279 14.0721 -0.103516 30.6406 -0.103516C47.2092 -0.103516 60.6406 13.3279 60.6406 29.8965V30.8965C60.6406 14.8802 47.2092 1.89648 30.6406 1.89648C14.0721 1.89648 0.640625 14.8802 0.640625 30.8965V29.8965ZM60.6406 60.8965H0.640625H60.6406ZM0.640625 60.8965V0.896484V60.8965ZM60.6406 0.896484V60.8965V0.896484Z" fill="white" fill-opacity="0.2" mask="url(#path-5-inside-3_2058_14833)"/>
<g clip-path="url(#clip0_2058_14833)">
<path d="M42.693 27.7292C41.4743 26.6039 39.7884 24.8855 38.4153 23.6668L38.334 23.6099C38.1988 23.5013 38.0464 23.4162 37.8831 23.358C34.5722 22.7405 19.1633 19.8603 18.8627 19.8968C18.7785 19.9086 18.698 19.9392 18.6271 19.9862L18.5499 20.0471C18.4549 20.1437 18.3827 20.2603 18.3387 20.3884L18.3184 20.4412V20.7296V20.7743C20.053 25.6046 26.9023 41.4278 28.251 45.1409C28.3323 45.3927 28.4867 45.8721 28.7751 45.8965H28.8401C28.9945 45.8965 29.6526 45.0271 29.6526 45.0271C29.6526 45.0271 41.4174 30.7598 42.6077 29.2405C42.7618 29.0533 42.8978 28.852 43.014 28.6392C43.0436 28.4727 43.0296 28.3014 42.9734 28.1419C42.9172 27.9825 42.8206 27.8403 42.693 27.7292ZM32.671 29.3908L37.6922 25.2268L40.6374 27.9405L32.671 29.3908ZM30.721 29.1186L22.0761 22.0337L36.0631 24.6133L30.721 29.1186ZM31.501 30.9751L40.349 29.5492L30.2335 41.7365L31.501 30.9751ZM20.9021 22.7405L29.9979 30.4592L28.6817 41.7447L20.9021 22.7405Z" fill="white"/>
</g>
<defs>
<filter id="filter0_f_2058_14833" x="-6.52246" y="36.3965" width="75" height="75" filterUnits="userSpaceOnUse" color-interpolation-filters="sRGB">
<feFlood flood-opacity="0" result="BackgroundImageFix"/>
<feBlend mode="normal" in="SourceGraphic" in2="BackgroundImageFix" result="shape"/>
<feGaussianBlur stdDeviation="10" result="effect1_foregroundBlur_2058_14833"/>
</filter>
<clipPath id="clip0_2058_14833">
<rect width="28" height="28" fill="white" transform="translate(16.6406 16.8965)"/>
</clipPath>
</defs>
</svg>
