<svg width="41" height="41" viewBox="0 0 41 41" fill="none" xmlns="http://www.w3.org/2000/svg">
<g clip-path="url(#clip0_2058_21027)">
<path d="M20.25 40.2217C31.3334 40.2217 40.25 31.3051 40.25 20.2217C40.25 9.13828 31.3334 0.22168 20.25 0.22168C9.1666 0.22168 0.25 9.13828 0.25 20.2217C0.25 31.3051 9.1666 40.2217 20.25 40.2217Z" fill="#2775CA"/>
<path d="M25.7496 23.3887C25.7496 20.4721 23.9996 19.4721 20.4996 19.0555C17.9996 18.7221 17.4996 18.0555 17.4996 16.8887C17.4996 15.7219 18.333 14.9721 19.9996 14.9721C21.4996 14.9721 22.333 15.4721 22.7496 16.7221C22.833 16.9721 23.083 17.1387 23.333 17.1387H24.6662C24.9996 17.1387 25.2496 16.8887 25.2496 16.5555V16.4721C24.9162 14.6387 23.4162 13.2221 21.4996 13.0555V11.0555C21.4996 10.7221 21.2496 10.4721 20.833 10.3887H19.583C19.2496 10.3887 18.9996 10.6387 18.9162 11.0555V12.9721C16.4162 13.3055 14.833 14.9721 14.833 17.0555C14.833 19.8055 16.4996 20.8887 19.9996 21.3055C22.333 21.7221 23.083 22.2221 23.083 23.5555C23.083 24.8889 21.9162 25.8055 20.333 25.8055C18.1662 25.8055 17.4162 24.8887 17.1662 23.6387C17.083 23.3055 16.833 23.1387 16.583 23.1387H15.1662C14.833 23.1387 14.583 23.3887 14.583 23.7221V23.8055C14.9162 25.8887 16.2496 27.3887 18.9996 27.8055V29.8055C18.9996 30.1387 19.2496 30.3887 19.6662 30.4721H20.9162C21.2496 30.4721 21.4996 30.2221 21.583 29.8055V27.8055C24.083 27.3887 25.7496 25.6387 25.7496 23.3887Z" fill="white"/>
<path d="M15.9997 32.1379C9.49967 29.8047 6.16627 22.5547 8.58307 16.1379C9.83307 12.6379 12.5831 9.97129 15.9997 8.72129C16.3331 8.55469 16.4997 8.30469 16.4997 7.88789V6.72129C16.4997 6.38789 16.3331 6.13789 15.9997 6.05469C15.9163 6.05469 15.7497 6.05469 15.6663 6.13789C7.74967 8.63789 3.41627 17.0547 5.91627 24.9713C7.41627 29.6379 10.9997 33.2213 15.6663 34.7213C15.9997 34.8879 16.3331 34.7213 16.4163 34.3879C16.4997 34.3047 16.4997 34.2213 16.4997 34.0547V32.8879C16.4997 32.6379 16.2497 32.3047 15.9997 32.1379ZM24.8331 6.13789C24.4997 5.97129 24.1663 6.13789 24.0831 6.47129C23.9997 6.55469 23.9997 6.63789 23.9997 6.80469V7.97129C23.9997 8.30469 24.2497 8.63789 24.4997 8.80469C30.9997 11.1379 34.3331 18.3879 31.9163 24.8047C30.6663 28.3047 27.9163 30.9713 24.4997 32.2213C24.1663 32.3879 23.9997 32.6379 23.9997 33.0547V34.2213C23.9997 34.5547 24.1663 34.8047 24.4997 34.8879C24.5831 34.8879 24.7497 34.8879 24.8331 34.8047C32.7497 32.3047 37.0831 23.8879 34.5831 15.9713C33.0831 11.2213 29.4163 7.63789 24.8331 6.13789Z" fill="white"/>
</g>
<defs>
<clipPath id="clip0_2058_21027">
<rect width="40" height="40" fill="white" transform="translate(0.25 0.22168)"/>
</clipPath>
</defs>
</svg>
