<svg width="41" height="41" viewBox="0 0 41 41" fill="none" xmlns="http://www.w3.org/2000/svg">
<g clip-path="url(#clip0_2058_21016)">
<path d="M20.25 0.22168C31.2952 0.22168 40.25 9.17648 40.25 20.2217C40.25 31.2669 31.2948 40.2217 20.25 40.2217C9.2052 40.2217 0.25 31.2693 0.25 20.2217C0.25 9.17408 9.2036 0.22168 20.25 0.22168Z" fill="#53AE94"/>
<path d="M22.7187 17.5572V14.582H29.5223V10.0488H10.9959V14.582H17.8003V17.5548C12.2703 17.8088 8.1123 18.904 8.1123 20.216C8.1123 21.528 12.2723 22.6232 17.8003 22.8788V32.4088H22.7203V22.878C28.2403 22.6232 32.3899 21.5288 32.3899 20.218C32.3899 18.9072 28.2403 17.8128 22.7203 17.558M22.7203 22.0708V22.0684C22.5815 22.0772 21.8683 22.12 20.2803 22.12C19.0107 22.12 18.1175 22.084 17.8027 22.0676V22.0716C12.9171 21.8552 9.2703 21.0044 9.2703 19.9864C9.2703 18.9684 12.9175 18.1188 17.8027 17.902V21.224C18.1227 21.246 19.0379 21.3 20.3011 21.3C21.8183 21.3 22.5811 21.2368 22.7211 21.224V17.902C27.5971 18.1192 31.2355 18.9708 31.2355 19.9852C31.2355 20.9996 27.5955 21.8516 22.7211 22.0688" fill="white"/>
</g>
<defs>
<clipPath id="clip0_2058_21016">
<rect width="40" height="40" fill="white" transform="translate(0.25 0.22168)"/>
</clipPath>
</defs>
</svg>
