<svg width="14" height="14" viewBox="0 0 14 14" fill="none" xmlns="http://www.w3.org/2000/svg">
<g clip-path="url(#clip0_2058_14740)">
<path d="M10.3389 4.81895C10.3389 3.91721 9.98065 3.05241 9.34303 2.41478C8.70541 1.77716 7.8406 1.41895 6.93887 1.41895C6.03713 1.41895 5.17233 1.77716 4.5347 2.41478C3.89708 3.05241 3.53887 3.91721 3.53887 4.81895C3.53887 8.78561 1.83887 9.91895 1.83887 9.91895H12.0389C12.0389 9.91895 10.3389 8.78561 10.3389 4.81895Z" stroke="#515C69" stroke-width="1.02" stroke-linecap="round" stroke-linejoin="round"/>
<path d="M7.91867 12.1865C7.81905 12.3583 7.67605 12.5008 7.504 12.5999C7.33195 12.699 7.13689 12.7512 6.93834 12.7512C6.73979 12.7512 6.54473 12.699 6.37268 12.5999C6.20063 12.5008 6.05763 12.3583 5.95801 12.1865" stroke="#515C69" stroke-width="1.02" stroke-linecap="round" stroke-linejoin="round"/>
</g>
<defs>
<clipPath id="clip0_2058_14740">
<rect width="13.6" height="13.6" fill="white" transform="translate(0.138672 0.286133)"/>
</clipPath>
</defs>
</svg>
