<svg width="14" height="14" viewBox="0 0 14 14" fill="none" xmlns="http://www.w3.org/2000/svg">
<path d="M12.1682 7.52102C12.0815 8.45872 11.7296 9.35236 11.1536 10.0974C10.5776 10.8424 9.80134 11.4079 8.91565 11.7278C8.02996 12.0477 7.07147 12.1088 6.15234 11.9038C5.23321 11.6989 4.39146 11.2364 3.72557 10.5706C3.05969 9.90467 2.59722 9.06291 2.39227 8.14378C2.18733 7.22465 2.24839 6.26617 2.56831 5.38047C2.88823 4.49478 3.45377 3.71851 4.19877 3.14251C4.94377 2.56651 5.8374 2.21459 6.77511 2.12793C6.22611 2.87066 5.96193 3.78577 6.03061 4.70681C6.0993 5.62786 6.49628 6.49366 7.14937 7.14675C7.80246 7.79984 8.66826 8.19683 9.58931 8.26551C10.5104 8.3342 11.4255 8.07002 12.1682 7.52102Z" stroke="#515C69" stroke-width="0.826316" stroke-linecap="round" stroke-linejoin="round"/>
</svg>
