<svg width="15" height="14" viewBox="0 0 15 14" fill="none" xmlns="http://www.w3.org/2000/svg">
<g clip-path="url(#clip0_2058_14751)">
<path d="M7.46337 9.83983C8.98458 9.83983 10.2178 8.60665 10.2178 7.08544C10.2178 5.56424 8.98458 4.33105 7.46337 4.33105C5.94217 4.33105 4.70898 5.56424 4.70898 7.08544C4.70898 8.60665 5.94217 9.83983 7.46337 9.83983Z" stroke="#020911" stroke-width="0.991579" stroke-linecap="round" stroke-linejoin="round"/>
<path d="M7.46387 1.02637V2.12812" stroke="#020911" stroke-width="0.991579" stroke-linecap="round" stroke-linejoin="round"/>
<path d="M7.46387 12.043V13.1447" stroke="#020911" stroke-width="0.991579" stroke-linecap="round" stroke-linejoin="round"/>
<path d="M3.17773 2.7998L3.95998 3.58205" stroke="#020911" stroke-width="0.991579" stroke-linecap="round" stroke-linejoin="round"/>
<path d="M10.9668 10.5889L11.749 11.3711" stroke="#020911" stroke-width="0.991579" stroke-linecap="round" stroke-linejoin="round"/>
<path d="M1.4043 7.08594H2.50605" stroke="#020911" stroke-width="0.991579" stroke-linecap="round" stroke-linejoin="round"/>
<path d="M12.4219 7.08594H13.5236" stroke="#020911" stroke-width="0.991579" stroke-linecap="round" stroke-linejoin="round"/>
<path d="M3.17773 11.3711L3.95998 10.5889" stroke="#020911" stroke-width="0.991579" stroke-linecap="round" stroke-linejoin="round"/>
<path d="M10.9668 3.58205L11.749 2.7998" stroke="#020911" stroke-width="0.991579" stroke-linecap="round" stroke-linejoin="round"/>
</g>
<defs>
<clipPath id="clip0_2058_14751">
<rect width="13.2211" height="13.2211" fill="white" transform="translate(0.853516 0.474609)"/>
</clipPath>
</defs>
</svg>
