<svg width="41" height="41" viewBox="0 0 41 41" fill="none" xmlns="http://www.w3.org/2000/svg">
<path d="M25.4961 12.1924C25.4961 12.1924 26.3294 13.0257 27.1628 14.6924C27.1628 14.6924 29.8098 10.5257 32.1628 9.69238" stroke="#030915" stroke-width="2" stroke-linecap="round" stroke-linejoin="round"/>
<path d="M17.1861 3.86901C13.022 3.69271 9.80486 4.17241 9.80486 4.17241C7.77345 4.31766 3.88043 5.45652 3.88046 12.1077C3.88049 18.7023 3.83739 26.8323 3.88046 30.0733C3.88046 32.0534 5.1065 36.6723 9.3501 36.9198C14.5082 37.2208 23.7992 37.2848 28.0621 36.9198C29.2032 36.8554 33.0024 35.9596 33.4832 31.8261C33.9814 27.5439 33.8822 24.5679 33.8822 23.8596" stroke="#030915" stroke-width="2" stroke-linecap="round" stroke-linejoin="round"/>
<path d="M37.1944 12.1927C37.1944 16.7951 33.4599 20.5261 28.8531 20.5261C24.2462 20.5261 20.5117 16.7951 20.5117 12.1927C20.5117 7.59034 24.2462 3.85938 28.8531 3.85938C33.4599 3.85938 37.1944 7.59034 37.1944 12.1927Z" stroke="#030915" stroke-width="2" stroke-linecap="round"/>
<path d="M12.1621 22.1929H18.8287" stroke="#030915" stroke-width="2" stroke-linecap="round"/>
<path d="M12.1621 28.8594H25.4954" stroke="#030915" stroke-width="2" stroke-linecap="round"/>
</svg>
