<svg width="21" height="21" viewBox="0 0 21 21" fill="none" xmlns="http://www.w3.org/2000/svg">
<path d="M2.25586 7.64122C2.25586 6.6444 2.65784 6.03351 3.48972 5.57056L6.91408 3.66486C8.70844 2.66628 9.60561 2.16699 10.5892 2.16699C11.5728 2.16699 12.4699 2.66628 14.2643 3.66486L17.6887 5.57056C18.5205 6.03351 18.9225 6.64441 18.9225 7.64122C18.9225 7.91152 18.9225 8.04667 18.893 8.15778C18.7379 8.74153 18.2089 8.83366 17.6981 8.83366H3.48026C2.96942 8.83366 2.44046 8.74153 2.28538 8.15778C2.25586 8.04667 2.25586 7.91152 2.25586 7.64122Z" stroke="#525A65" stroke-width="1.25"/>
<path d="M10.5859 6.33301H10.5934" stroke="#525A65" stroke-width="1.66667" stroke-linecap="round" stroke-linejoin="round"/>
<path d="M3.92383 8.83301V15.9163M7.25716 8.83301V15.9163" stroke="#525A65" stroke-width="1.25"/>
<path d="M13.9238 8.83301V15.9163M17.2572 8.83301V15.9163" stroke="#525A65" stroke-width="1.25"/>
<path d="M16.4225 15.917H4.75586C3.37515 15.917 2.25586 17.0362 2.25586 18.417C2.25586 18.6471 2.44241 18.8337 2.67253 18.8337H18.5059C18.7359 18.8337 18.9225 18.6471 18.9225 18.417C18.9225 17.0362 17.8033 15.917 16.4225 15.917Z" stroke="#525A65" stroke-width="1.25"/>
</svg>
