<svg width="21" height="21" viewBox="0 0 21 21" fill="none" xmlns="http://www.w3.org/2000/svg">
<path d="M4.33984 8.83366C4.33984 5.69096 4.33984 4.11962 5.31615 3.1433C6.29247 2.16699 7.86381 2.16699 11.0065 2.16699H12.2565C15.3992 2.16699 16.9706 2.16699 17.9468 3.1433C18.9232 4.11962 18.9232 5.69096 18.9232 8.83366V12.167C18.9232 15.3097 18.9232 16.8811 17.9468 17.8573C16.9706 18.8337 15.3992 18.8337 12.2565 18.8337H11.0065C7.86381 18.8337 6.29247 18.8337 5.31615 17.8573C4.33984 16.8811 4.33984 15.3097 4.33984 12.167V8.83366Z" stroke="#525A65" stroke-width="1.25"/>
<path d="M13.2982 8.83317V10.9165C13.2982 11.6068 13.8578 12.1665 14.5482 12.1665C15.2385 12.1665 15.7982 11.6068 15.7982 10.9165V10.4997C15.7982 8.19849 13.9327 6.33301 11.6315 6.33301C9.33034 6.33301 7.46484 8.19849 7.46484 10.4997C7.46484 12.8008 9.33034 14.6663 11.6315 14.6663C12.5697 14.6663 13.4354 14.3563 14.1319 13.833M13.2982 10.4998C13.2982 11.4203 12.552 12.1665 11.6315 12.1665C10.711 12.1665 9.96484 11.4203 9.96484 10.4998C9.96484 9.57934 10.711 8.83317 11.6315 8.83317C12.552 8.83317 13.2982 9.57934 13.2982 10.4998Z" stroke="#525A65" stroke-width="1.25" stroke-linecap="round"/>
<path d="M4.34017 5.5H2.25684M4.34017 10.5H2.25684M4.34017 15.5H2.25684" stroke="#525A65" stroke-width="1.25" stroke-linecap="round" stroke-linejoin="round"/>
</svg>
