<svg width="21" height="21" viewBox="0 0 21 21" fill="none" xmlns="http://www.w3.org/2000/svg">
<path d="M10.1735 6.94922H17.4202C17.9408 6.94922 18.2012 6.94922 18.3918 7.03325C19.2348 7.40497 18.8579 8.34151 18.7161 9.01455C18.6906 9.13547 18.6077 9.23839 18.4915 9.29355C18.0096 9.52222 17.672 9.95597 17.5834 10.4604L17.0896 13.2724C16.8723 14.5096 16.7981 16.2778 15.7138 17.1494C14.9183 17.7826 13.7722 17.7826 11.4798 17.7826H9.70059C7.40819 17.7826 6.262 17.7826 5.4665 17.1494C4.38227 16.2777 4.30799 14.5096 4.09072 13.2724L3.5969 10.4604C3.50831 9.95597 3.17078 9.52222 2.68885 9.29355C2.57264 9.23839 2.48977 9.13547 2.46429 9.01455C2.32245 8.34151 1.9455 7.40497 2.7886 7.03325C2.9792 6.94922 3.23952 6.94922 3.76015 6.94922H6.84017" stroke="#020911" stroke-width="1.25" stroke-linecap="round"/>
<path d="M12.2562 10.2832H8.92285" stroke="#020911" stroke-width="1.25" stroke-linecap="round" stroke-linejoin="round"/>
<path d="M6.00684 9.44987L8.9235 2.7832M13.0902 2.7832L15.1735 6.94987" stroke="#020911" stroke-width="1.25" stroke-linecap="round"/>
</svg>
