<svg width="21" height="21" viewBox="0 0 21 21" fill="none" xmlns="http://www.w3.org/2000/svg">
<g opacity="0.7">
<path d="M18.4225 5.6888C18.4225 4.52203 18.4225 3.93864 18.1954 3.49299C17.9957 3.10099 17.677 2.78228 17.285 2.58254C16.8394 2.35547 16.2559 2.35547 15.0892 2.35547C13.9224 2.35547 13.339 2.35547 12.8934 2.58254C12.5014 2.78228 12.1827 3.10099 11.9829 3.49299C11.7559 3.93864 11.7559 4.52203 11.7559 5.6888V15.6888C11.7559 16.8556 11.7559 17.439 11.9829 17.8846C12.1827 18.2766 12.5014 18.5953 12.8934 18.7951C13.339 19.0221 13.9224 19.0221 15.0892 19.0221C16.2559 19.0221 16.8394 19.0221 17.285 18.7951C17.677 18.5953 17.9957 18.2766 18.1954 17.8846C18.4225 17.439 18.4225 16.8556 18.4225 15.6888V5.6888Z" stroke="#12161E" stroke-width="1.25"/>
<path d="M5.08984 10.6888H11.7565M5.08984 10.6888C5.08984 10.1053 6.75176 9.01508 7.17318 8.60547M5.08984 10.6888C5.08984 11.2723 6.75176 12.3626 7.17318 12.7721" stroke="#12161E" stroke-width="1.25" stroke-linecap="round" stroke-linejoin="round"/>
<path d="M6.75586 19.0221C4.80678 19.0221 3.83225 19.0221 3.12077 18.5751C2.74975 18.342 2.43603 18.0282 2.20292 17.6572C1.75586 16.9457 1.75586 15.9712 1.75586 14.0221V7.35547C1.75586 5.40639 1.75586 4.43186 2.20292 3.72038C2.43603 3.34936 2.74975 3.03564 3.12077 2.80253C3.83225 2.35547 4.80678 2.35547 6.75586 2.35547" stroke="#12161E" stroke-width="1.25" stroke-linecap="round"/>
</g>
</svg>
