<svg width="21" height="21" viewBox="0 0 21 21" fill="none" xmlns="http://www.w3.org/2000/svg">
<path d="M14.8815 9.00911C16.8375 9.00911 18.4232 7.42346 18.4232 5.46745C18.4232 3.51144 16.8375 1.92578 14.8815 1.92578C12.9255 1.92578 11.3398 3.51144 11.3398 5.46745C11.3398 7.42346 12.9255 9.00911 14.8815 9.00911Z" stroke="#525A65" stroke-width="1.5"/>
<path d="M5.29753 9.00911C7.25353 9.00911 8.83919 7.42346 8.83919 5.46745C8.83919 3.51144 7.25353 1.92578 5.29753 1.92578C3.34152 1.92578 1.75586 3.51144 1.75586 5.46745C1.75586 7.42346 3.34152 9.00911 5.29753 9.00911Z" stroke="#525A65" stroke-width="1.5"/>
<path d="M14.8815 18.5911C16.8375 18.5911 18.4232 17.0055 18.4232 15.0495C18.4232 13.0935 16.8375 11.5078 14.8815 11.5078C12.9255 11.5078 11.3398 13.0935 11.3398 15.0495C11.3398 17.0055 12.9255 18.5911 14.8815 18.5911Z" stroke="#525A65" stroke-width="1.5"/>
<path d="M5.2985 18.5911C7.25451 18.5911 8.84017 17.0055 8.84017 15.0495C8.84017 13.0935 7.25451 11.5078 5.2985 11.5078C3.34249 11.5078 1.75684 13.0935 1.75684 15.0495C1.75684 17.0055 3.34249 18.5911 5.2985 18.5911Z" stroke="#525A65" stroke-width="1.5"/>
</svg>
