<svg width="21" height="21" viewBox="0 0 21 21" fill="none" xmlns="http://www.w3.org/2000/svg">
<path d="M14.1794 4.15263C13.6869 4.15263 13.4406 4.15263 13.2163 4.06939C13.1851 4.05782 13.1544 4.04511 13.1242 4.03125C12.9067 3.93147 12.7326 3.75734 12.3843 3.40907C11.5827 2.60749 11.1819 2.2067 10.6888 2.16974C10.6225 2.16477 10.5559 2.16477 10.4896 2.16974C9.99644 2.2067 9.59561 2.60749 8.79407 3.40907C8.4458 3.75734 8.27167 3.93147 8.05417 4.03125C8.02396 4.04511 7.99324 4.05782 7.96208 4.06939C7.73773 4.15263 7.49147 4.15263 6.99895 4.15263H6.9081C5.65151 4.15263 5.02322 4.15263 4.63285 4.54301C4.24248 4.93337 4.24248 5.56167 4.24248 6.81826V6.90911C4.24248 7.40162 4.24248 7.64789 4.15923 7.87224C4.14767 7.9034 4.13495 7.93412 4.12109 7.96432C4.02132 8.18182 3.84718 8.35596 3.49891 8.70422C2.69733 9.50577 2.29654 9.9066 2.25958 10.3998C2.25462 10.466 2.25462 10.5327 2.25958 10.5989C2.29654 11.0921 2.69733 11.4928 3.49891 12.2944C3.84718 12.6428 4.02132 12.8168 4.12109 13.0343C4.13495 13.0646 4.14767 13.0953 4.15923 13.1264C4.24248 13.3508 4.24248 13.5971 4.24248 14.0896V14.1804C4.24248 15.437 4.24248 16.0653 4.63285 16.4557C5.02322 16.8461 5.65151 16.8461 6.9081 16.8461H6.99895C7.49147 16.8461 7.73773 16.8461 7.96208 16.9293C7.99324 16.9408 8.02396 16.9536 8.05417 16.9674C8.27167 17.0673 8.4458 17.2413 8.79407 17.5896C9.59561 18.3912 9.99644 18.792 10.4896 18.8289C10.5559 18.8339 10.6224 18.8339 10.6888 18.8289C11.1819 18.792 11.5827 18.3912 12.3843 17.5896C12.7326 17.2413 12.9067 17.0673 13.1242 16.9674C13.1544 16.9536 13.1851 16.9408 13.2163 16.9293C13.4406 16.8461 13.6869 16.8461 14.1794 16.8461H14.2703C15.5269 16.8461 16.1552 16.8461 16.5455 16.4557C16.9359 16.0653 16.9359 15.437 16.9359 14.1804V14.0896C16.9359 13.5971 16.9359 13.3508 17.0192 13.1264C17.0307 13.0953 17.0434 13.0646 17.0573 13.0343C17.1571 12.8168 17.3312 12.6428 17.6794 12.2944C18.481 11.4928 18.8819 11.0921 18.9188 10.5989C18.9238 10.5326 18.9238 10.466 18.9188 10.3998C18.8819 9.9066 18.481 9.50577 17.6794 8.70422C17.3312 8.35596 17.1571 8.18182 17.0573 7.96432C17.0434 7.93412 17.0307 7.9034 17.0192 7.87224C16.9359 7.64789 16.9359 7.40162 16.9359 6.90911V6.81826C16.9359 5.56167 16.9359 4.93337 16.5455 4.54301C16.1552 4.15263 15.5269 4.15263 14.2703 4.15263H14.1794Z" stroke="#525A65" stroke-width="1.25"/>
<path d="M13.5072 10.5007C13.5072 12.1115 12.2013 13.4173 10.5905 13.4173C8.97966 13.4173 7.67383 12.1115 7.67383 10.5007C7.67383 8.88982 8.97966 7.58398 10.5905 7.58398C12.2013 7.58398 13.5072 8.88982 13.5072 10.5007Z" stroke="#525A65" stroke-width="1.25"/>
</svg>
