<svg width="21" height="21" viewBox="0 0 21 21" fill="none" xmlns="http://www.w3.org/2000/svg">
<path d="M13.9238 12.167C13.9238 12.8573 14.4835 13.417 15.1738 13.417C15.8642 13.417 16.4238 12.8573 16.4238 12.167C16.4238 11.4767 15.8642 10.917 15.1738 10.917C14.4835 10.917 13.9238 11.4767 13.9238 12.167Z" stroke="#525A65" stroke-width="1.25"/>
<path d="M16.3398 7.16699C16.3945 6.89773 16.4232 6.61905 16.4232 6.33366C16.4232 4.03248 14.5577 2.16699 12.2565 2.16699C9.95534 2.16699 8.08984 4.03248 8.08984 6.33366C8.08984 6.61905 8.11854 6.89773 8.17319 7.16699" stroke="#525A65" stroke-width="1.25"/>
<path d="M6.42253 7.16071H13.9225C16.2795 7.16071 17.458 7.16071 18.1903 7.89329C18.9225 8.62588 18.9225 9.80492 18.9225 12.1631V13.8306C18.9225 16.1888 18.9225 17.3678 18.1903 18.1004C17.458 18.833 16.2795 18.833 13.9225 18.833H8.92253C5.77983 18.833 4.20848 18.833 3.23217 17.8563C2.25586 16.8794 2.25586 15.3073 2.25586 12.1631V10.4957C2.25586 7.35143 2.25586 5.77932 3.23217 4.80254C4.01808 4.01626 5.18955 3.86292 7.25586 3.83301H8.92253" stroke="#525A65" stroke-width="1.25" stroke-linecap="round"/>
</svg>
