<svg width="157" height="158" viewBox="0 0 157 158" fill="none" xmlns="http://www.w3.org/2000/svg">
<rect x="0.378906" y="0.818359" width="156.245" height="156.79" rx="10" fill="white"/>
<g clip-path="url(#clip0_2289_8161)">
<path d="M95.0742 21.3418V62.7704H136.503V21.3418H95.0742ZM128.217 54.4847H103.36V29.6275H128.217V54.4847Z" fill="#030915"/>
<path d="M45.3599 37.9141H37.0742V46.1998H45.3599V37.9141Z" fill="#030915"/>
<path d="M119.93 37.9141H111.645V46.1998H119.93V37.9141Z" fill="#030915"/>
<path d="M86.7882 37.9132H78.5025V29.6275H86.7882V21.3418H70.2168V46.1989H78.5025V54.4847H86.7882V37.9132Z" fill="#030915"/>
<path d="M61.9305 62.7704V21.3418H20.502V62.7704H28.7877H61.9305ZM28.7877 29.6275H53.6448V54.4847H28.7877V29.6275Z" fill="#030915"/>
<path d="M20.502 71.0566V87.6281H28.7877V79.3424H37.0734V71.0566H20.502Z" fill="#030915"/>
<path d="M78.5025 79.3415H86.7882V62.7701H78.5025V54.4844H70.2168V71.0558H78.5025V79.3415Z" fill="#030915"/>
<path d="M119.93 71.0566H111.645V79.3424H119.93V71.0566Z" fill="#030915"/>
<path d="M136.503 71.0566H128.217V79.3424H136.503V71.0566Z" fill="#030915"/>
<path d="M103.359 87.6281V95.9138H111.644V104.199H119.93V87.6281H111.644V79.3424H103.359V71.0566H95.0728V79.3424H86.7871V87.6281H103.359Z" fill="#030915"/>
<path d="M128.215 79.3418H119.93V87.6275H128.215V79.3418Z" fill="#030915"/>
<path d="M20.502 95.9141V137.343H61.9305V95.9141H20.502ZM53.6448 129.057H28.7877V104.2H53.6448V129.057Z" fill="#030915"/>
<path d="M86.7885 87.6281H78.5028V79.3424H70.2171V71.0566H45.3599V79.3424H37.0742V87.6281H53.6456V79.3424H61.9314V87.6281H70.2171V95.9138H78.5028V104.199H86.7885V87.6281Z" fill="#030915"/>
<path d="M103.36 95.9141H95.0742V104.2H103.36V95.9141Z" fill="#030915"/>
<path d="M136.503 87.627H128.217V104.198H136.503V87.627Z" fill="#030915"/>
<path d="M111.645 104.199H103.359V112.485H111.645V104.199Z" fill="#030915"/>
<path d="M128.215 104.199H119.93V112.485H128.215V104.199Z" fill="#030915"/>
<path d="M45.3599 112.484H37.0742V120.77H45.3599V112.484Z" fill="#030915"/>
<path d="M103.36 120.771V112.485H95.0739V104.199H86.7882V112.485H78.5025V104.199H70.2168V120.771H78.5025V129.056H86.7882V120.771H103.36Z" fill="#030915"/>
<path d="M111.645 120.77H103.359V129.056H111.645V137.342H119.931V112.484H111.645V120.77Z" fill="#030915"/>
<path d="M136.503 112.484H128.217V120.77H136.503V112.484Z" fill="#030915"/>
<path d="M78.5025 129.057H70.2168V137.342H78.5025V129.057Z" fill="#030915"/>
<path d="M103.359 129.057H86.7871V137.342H103.359V129.057Z" fill="#030915"/>
<path d="M136.503 129.057H128.217V137.342H136.503V129.057Z" fill="#030915"/>
</g>
<defs>
<clipPath id="clip0_2289_8161">
<rect width="116" height="116" fill="white" transform="translate(20.502 21.3418)"/>
</clipPath>
</defs>
</svg>
