<svg width="29" height="30" viewBox="0 0 29 30" fill="none" xmlns="http://www.w3.org/2000/svg">
<g filter="url(#filter0_d_6064_5736)">
<rect x="5" y="5.30713" width="19.4708" height="19.4976" rx="1.64765" fill="white"/>
</g>
<g clip-path="url(#clip0_6064_5736)">
<path d="M7.46777 12.6213H12.3129V7.77612H7.46777V12.6213ZM8.2753 8.58365H11.5054V11.8138H8.2753V8.58365ZM9.08283 9.39118H10.6979V11.0062H9.08283V9.39118ZM17.1581 12.6213H22.0033V7.77612H17.1581V12.6213ZM17.9656 8.58365H21.1957V11.8138H17.9656V8.58365ZM18.7732 9.39118H20.3882V11.0062H18.7732V9.39118ZM7.46777 22.3116H12.3129V17.4664H7.46777V22.3116ZM8.2753 18.274H11.5054V21.5041H8.2753V18.274ZM9.08283 19.0815H10.6979V20.6966H9.08283V19.0815ZM21.1957 20.6966H22.0033V22.3116H20.3882V19.889H21.1957V20.6966ZM21.1957 18.274H22.0033V19.0815H21.1957V18.274ZM21.1957 17.4664V18.274H20.3882V17.4664H21.1957ZM13.1205 19.0815H13.928V22.3116H13.1205V19.0815ZM9.89035 13.4288V15.0439H8.2753V14.2363H7.46777V13.4288H9.89035ZM13.1205 11.0062H13.928V11.8138H13.1205V11.0062ZM15.543 8.58365V10.1987H14.7355V7.77612H16.3506V8.58365H15.543ZM13.1205 8.58365H13.928V9.39118H13.1205V8.58365ZM21.1957 15.0439H22.0033V16.6589H20.3882V15.8514H21.1957V15.0439ZM20.3882 13.4288V14.2363H18.7732V15.8514H17.1581V15.0439H17.9656V13.4288H20.3882ZM14.7355 16.6589H13.928V15.8514H13.1205V15.0439H14.7355V16.6589ZM19.5807 18.274H20.3882V19.0815H19.5807V18.274ZM21.1957 14.2363V15.0439H20.3882V14.2363H21.1957ZM13.928 16.6589V17.4664H13.1205V16.6589H13.928ZM18.7732 20.6966H19.5807V22.3116H17.9656V20.6966H18.7732ZM16.3506 20.6966H17.1581V21.5041H16.3506V22.3116H14.7355V21.5041H15.543V20.6966H16.3506ZM16.3506 19.889V19.0815H17.9656V19.889H16.3506ZM16.3506 15.8514H17.1581V18.274H16.3506V19.0815H15.543V19.889H14.7355V18.274H13.928V17.4664H16.3506V16.6589H15.543V15.8514H16.3506ZM9.08283 15.8514V16.6589H8.2753V15.8514H9.08283ZM18.7732 19.0815H17.9656V18.274H18.7732V19.0815ZM19.5807 17.4664H17.9656V16.6589H19.5807V17.4664ZM11.5054 13.4288H12.3129V14.2363H11.5054V15.0439H12.3129V16.6589H11.5054V15.8514H10.6979V16.6589H9.89035V15.0439H10.6979V13.4288H11.5054ZM13.928 13.4288V11.8138H16.3506V14.2363H14.7355V13.4288H15.543V12.6213H14.7355V13.4288H13.928ZM13.928 10.1987H14.7355V11.0062H13.928V10.1987ZM13.1205 13.4288H13.928V14.2363H13.1205V13.4288ZM15.543 11.0062V10.1987H16.3506V11.0062H15.543Z" fill="#292C2F"/>
</g>
<defs>
<filter id="filter0_d_6064_5736" x="0.468954" y="0.776083" width="28.5328" height="28.5597" filterUnits="userSpaceOnUse" color-interpolation-filters="sRGB">
<feFlood flood-opacity="0" result="BackgroundImageFix"/>
<feColorMatrix in="SourceAlpha" type="matrix" values="0 0 0 0 0 0 0 0 0 0 0 0 0 0 0 0 0 0 127 0" result="hardAlpha"/>
<feOffset/>
<feGaussianBlur stdDeviation="2.26552"/>
<feComposite in2="hardAlpha" operator="out"/>
<feColorMatrix type="matrix" values="0 0 0 0 0 0 0 0 0 0 0 0 0 0 0 0 0 0 0.05 0"/>
<feBlend mode="normal" in2="BackgroundImageFix" result="effect1_dropShadow_6064_5736"/>
<feBlend mode="normal" in="SourceGraphic" in2="effect1_dropShadow_6064_5736" result="shape"/>
</filter>
<clipPath id="clip0_6064_5736">
<rect width="16.2257" height="16.2257" fill="white" transform="translate(6.62256 6.93115)"/>
</clipPath>
</defs>
</svg>
