<svg width="400" height="401" viewBox="0 0 400 401" fill="none" xmlns="http://www.w3.org/2000/svg">
<g clip-path="url(#clip0_6064_5876)">
<path d="M20.833 140.773H140.277V21.3289H20.833V140.773ZM40.7404 41.2363H120.37V120.866H40.7404V41.2363ZM60.6478 61.1437H100.463V100.958H60.6478V61.1437ZM259.722 140.773H379.166V21.3289H259.722V140.773ZM279.629 41.2363H359.259V120.866H279.629V41.2363ZM299.537 61.1437H339.352V100.958H299.537V61.1437ZM20.833 379.662H140.277V260.218H20.833V379.662ZM40.7404 280.125H120.37V359.755H40.7404V280.125ZM60.6478 300.033H100.463V339.847H60.6478V300.033ZM359.259 339.847H379.166V379.662H339.352V319.94H359.259V339.847ZM359.259 280.125H379.166V300.033H359.259V280.125ZM359.259 260.218V280.125H339.352V260.218H359.259ZM160.185 300.033H180.092V379.662H160.185V300.033ZM80.5552 160.681V200.496H40.7404V180.588H20.833V160.681H80.5552ZM160.185 100.958H180.092V120.866H160.185V100.958ZM219.907 41.2363V81.0511H200V21.3289H239.815V41.2363H219.907ZM160.185 41.2363H180.092V61.1437H160.185V41.2363ZM359.259 200.496H379.166V240.31H339.352V220.403H359.259V200.496ZM339.352 160.681V180.588H299.537V220.403H259.722V200.496H279.629V160.681H339.352ZM200 240.31H180.092V220.403H160.185V200.496H200V240.31ZM319.444 280.125H339.352V300.033H319.444V280.125ZM359.259 180.588V200.496H339.352V180.588H359.259ZM180.092 240.31V260.218H160.185V240.31H180.092ZM299.537 339.847H319.444V379.662H279.629V339.847H299.537ZM239.815 339.847H259.722V359.755H239.815V379.662H200V359.755H219.907V339.847H239.815ZM239.815 319.94V300.033H279.629V319.94H239.815ZM239.815 220.403H259.722V280.125H239.815V300.033H219.907V319.94H200V280.125H180.092V260.218H239.815V240.31H219.907V220.403H239.815ZM60.6478 220.403V240.31H40.7404V220.403H60.6478ZM299.537 300.033H279.629V280.125H299.537V300.033ZM319.444 260.218H279.629V240.31H319.444V260.218ZM120.37 160.681H140.277V180.588H120.37V200.496H140.277V240.31H120.37V220.403H100.463V240.31H80.5552V200.496H100.463V160.681H120.37ZM180.092 160.681V120.866H239.815V180.588H200V160.681H219.907V140.773H200V160.681H180.092ZM180.092 81.0511H200V100.958H180.092V81.0511ZM160.185 160.681H180.092V180.588H160.185V160.681ZM219.907 100.958V81.0511H239.815V100.958H219.907Z" fill="#292C2F"/>
</g>
<defs>
<clipPath id="clip0_6064_5876">
<rect width="400" height="400" fill="white" transform="translate(0 0.495605)"/>
</clipPath>
</defs>
</svg>
