<svg width="27" height="28" viewBox="0 0 27 28" fill="none" xmlns="http://www.w3.org/2000/svg">
<g opacity="0.7">
<rect x="0.855469" y="1.40234" width="25.1953" height="25.1953" rx="12.5977" stroke="#525A65"/>
<path d="M13.4524 16.5085H13.4575M13.4524 12.7172V14.6128M12.552 9.69485L8.09215 17.1404C8.00026 17.2996 7.95166 17.4802 7.95118 17.664C7.95069 17.8479 7.99834 18.0287 8.0894 18.1884C8.18045 18.3482 8.31172 18.4813 8.47018 18.5745C8.62863 18.6678 8.80873 18.718 8.99259 18.7201H17.9123C18.0962 18.7182 18.2764 18.6681 18.435 18.5749C18.5936 18.4817 18.7249 18.3485 18.816 18.1887C18.9071 18.0289 18.9547 17.848 18.9542 17.6641C18.9536 17.4802 18.9048 17.2996 18.8127 17.1404L14.3535 9.69485C14.2597 9.53999 14.1276 9.41194 13.9698 9.32306C13.8121 9.23419 13.6341 9.1875 13.4531 9.1875C13.272 9.1875 13.094 9.23419 12.9363 9.32306C12.7786 9.41194 12.6464 9.53999 12.5526 9.69485" stroke="#525A65" stroke-width="1.00326" stroke-miterlimit="10" stroke-linecap="round" stroke-linejoin="round"/>
</g>
</svg>
