<svg width="138" height="138" viewBox="0 0 138 138" fill="none" xmlns="http://www.w3.org/2000/svg">
<g clip-path="url(#clip0_2058_33419)">
<path d="M28.2332 14.251H14.5332V27.951H28.2332V14.251Z" fill="#030915"/>
<path d="M96.7348 0.550781V7.40078H89.8848V14.2508H96.7348V41.6508H103.585V48.5008H96.7348V55.3508H103.585H110.435V41.6508H130.985V48.5008H137.835V41.6508V0.550781H96.7348ZM130.985 34.8008H103.585V7.40078H130.985V34.8008Z" fill="#030915"/>
<path d="M124.134 14.251H110.434V27.951H124.134V14.251Z" fill="#030915"/>
<path d="M28.2332 110.15H14.5332V123.85H28.2332V110.15Z" fill="#030915"/>
<path d="M103.584 96.4512H96.7344V103.301H103.584V96.4512Z" fill="#030915"/>
<path d="M69.3344 130.701H62.4844V137.551H69.3344V130.701Z" fill="#030915"/>
<path d="M76.184 103.301H69.334V110.151H76.184V103.301Z" fill="#030915"/>
<path d="M76.184 117.001H69.334V123.851H76.184V117.001Z" fill="#030915"/>
<path d="M137.834 82.751H130.984V89.601H137.834V82.751Z" fill="#030915"/>
<path d="M7.68398 82.751H0.833984V89.601H7.68398V82.751Z" fill="#030915"/>
<path d="M7.68398 48.501H0.833984V55.351H7.68398V48.501Z" fill="#030915"/>
<path d="M76.1844 7.40039V14.2504H62.4844V21.1004H83.0344V14.2504V7.40039H76.1844Z" fill="#030915"/>
<path d="M130.983 55.3506V62.2006H117.283V69.0506H96.7332V62.2006H89.8832V69.0506H76.1832V75.9006H96.7332V82.7506H83.0332H76.1832V75.9006H69.3332V82.7506H62.4832V75.9006H55.6332V82.7506H48.7832V89.6006H62.4832V96.4506H69.3332V89.6006H83.0332V96.4506H76.1832V103.301H83.0332V117.001H89.8832V123.851H96.7332V117.001H117.283V103.301H124.133V96.4506H117.283V82.7506H103.583V75.9006H117.283V82.7506H124.133V75.9006H130.983V69.0506H137.833V62.2006V55.3506H130.983ZM110.433 89.6006V110.151H89.8832V89.6006H110.433Z" fill="#030915"/>
<path d="M89.8836 41.6504H83.0336V48.5004H76.1836V55.3504V62.2004H83.0336V55.3504H89.8836V48.5004H96.7336V41.6504H89.8836Z" fill="#030915"/>
<path d="M89.8836 130.701H76.1836V137.551H89.8836V130.701Z" fill="#030915"/>
<path d="M62.4848 7.40039H55.6348V14.2504H62.4848V7.40039Z" fill="#030915"/>
<path d="M117.284 55.3506H110.434V62.2006H117.284V55.3506Z" fill="#030915"/>
<path d="M124.133 48.501H117.283V55.351H124.133V48.501Z" fill="#030915"/>
<path d="M35.0844 82.751H28.2344V89.601H35.0844V82.751Z" fill="#030915"/>
<path d="M41.934 130.701V103.301H48.784V96.4506V89.6006H41.934V96.4506H21.384V89.6006H14.534H7.68398V96.4506H0.833984V137.551H41.934H55.634V130.701H41.934ZM35.084 130.701H7.68398V103.301H35.084V130.701Z" fill="#030915"/>
<path d="M48.7836 41.6504H41.9336V48.5004H48.7836V41.6504Z" fill="#030915"/>
<path d="M48.784 0.550781H41.934H0.833984V41.6508H7.68398V48.5008H14.534V41.6508H21.384V48.5008H28.234V41.6508H41.934V27.9508H48.784V21.1008H41.934V7.40078H48.784H55.634V0.550781H48.784ZM35.084 34.8008H7.68398V7.40078H35.084V34.8008Z" fill="#030915"/>
<path d="M89.8832 21.1006H83.0332V27.9506H89.8832V21.1006Z" fill="#030915"/>
<path d="M76.184 0.550781H69.334V7.40078H76.184V0.550781Z" fill="#030915"/>
<path d="M83.034 41.6512V34.8012H76.184V27.9512H69.334V34.8012H55.634V27.9512H48.784V34.8012V41.6512H55.634V55.3512H35.084V48.5012H28.234V55.3512H7.68398V62.2012H21.384V69.0512H0.833984V75.9012H21.384V82.7512H28.234V75.9012H35.084V82.7512H41.934V75.9012H55.634V69.0512H48.784V62.2012H55.634H62.484V69.0512H69.334H76.184V62.2012H69.334V55.3512H62.484V41.6512H83.034ZM41.934 69.0512H28.234V62.2012H41.934V69.0512Z" fill="#030915"/>
<path d="M62.4832 110.151V103.301V96.4512H55.6332V103.301H48.7832V110.151H55.6332V117.001H48.7832V123.851H62.4832V117.001H69.3332V110.151H62.4832Z" fill="#030915"/>
<path d="M124.134 123.851V117.001H117.284V123.851H96.7344V130.701H110.434V137.551H117.284V130.701H130.984V137.551H137.834V130.701V123.851H124.134Z" fill="#030915"/>
<path d="M130.985 96.4512V103.301H124.135V110.151H137.835V103.301V96.4512H130.985Z" fill="#030915"/>
</g>
<defs>
<clipPath id="clip0_2058_33419">
<rect width="137" height="137" fill="white" transform="translate(0.833984 0.550781)"/>
</clipPath>
</defs>
</svg>
