<svg width="71" height="71" viewBox="0 0 71 71" fill="none" xmlns="http://www.w3.org/2000/svg">
<rect x="0.0546875" y="0.576172" width="70" height="70" rx="35" fill="#FFB545"/>
<path d="M35.0532 41.5511H35.065M35.0532 32.6844V37.1177M32.9473 25.6162L22.5172 43.0288C22.3023 43.4013 22.1886 43.8235 22.1875 44.2535C22.1864 44.6835 22.2978 45.1063 22.5108 45.4799C22.7237 45.8535 23.0307 46.1648 23.4013 46.3829C23.7718 46.6011 24.1931 46.7184 24.623 46.7233H45.4833C45.9135 46.7188 46.3349 46.6018 46.7058 46.3838C47.0766 46.1657 47.3838 45.8543 47.5969 45.4806C47.8099 45.1069 47.9213 44.6839 47.9199 44.2537C47.9186 43.8235 47.8045 43.4012 47.5891 43.0288L37.1605 25.6162C36.9411 25.254 36.6321 24.9546 36.2632 24.7467C35.8943 24.5389 35.4781 24.4297 35.0547 24.4297C34.6312 24.4297 34.215 24.5389 33.8461 24.7467C33.4772 24.9546 33.1682 25.254 32.9488 25.6162" stroke="#0E121D" stroke-width="1.5" stroke-miterlimit="10" stroke-linecap="round" stroke-linejoin="round"/>
</svg>
